<svg width="18" height="18" viewBox="0 0 18 18" fill="none" xmlns="http://www.w3.org/2000/svg">
<path d="M14.25 5.25C14.25 4.425 13.575 3.75 12.75 3.75H10.5V5.25H12.75V7.2375L10.14 10.5H7.5V6.75H4.5C2.8425 6.75 1.5 8.0925 1.5 9.75V12H3C3 13.245 4.005 14.25 5.25 14.25C6.495 14.25 7.5 13.245 7.5 12H10.86L14.25 7.7625V5.25ZM5.25 12.75C4.8375 12.75 4.5 12.4125 4.5 12H6C6 12.4125 5.6625 12.75 5.25 12.75Z" fill="black"/>
<path d="M3.75 4.5H7.5V6H3.75V4.5ZM14.25 9.75C13.005 9.75 12 10.755 12 12C12 13.245 13.005 14.25 14.25 14.25C15.495 14.25 16.5 13.245 16.5 12C16.5 10.755 15.495 9.75 14.25 9.75ZM14.25 12.75C13.8375 12.75 13.5 12.4125 13.5 12C13.5 11.5875 13.8375 11.25 14.25 11.25C14.6625 11.25 15 11.5875 15 12C15 12.4125 14.6625 12.75 14.25 12.75Z" fill="black"/>
</svg>
